<?xml version="1.0" encoding="utf-8"?>
<!-- Generator: Adobe Illustrator 25.4.2, SVG Export Plug-In . SVG Version: 6.00 Build 0)  -->
<svg version="1.1" id="Layer_1" xmlns="http://www.w3.org/2000/svg" xmlns:xlink="http://www.w3.org/1999/xlink" x="0px" y="0px"
	 viewBox="0 0 451.71 147.62" height="147.62" width="451.71" style="enable-background:new 0 0 451.71 147.62;" xml:space="preserve">
<style type="text/css">
	.st0{fill:#1677FF;}
	.st1{fill:#FFFFFF;}
</style>
<g>
	<path class="st0" d="M98.49,24.87H26.54c-9.37,0-16.96,7.66-16.96,17.1v72.56c0,9.44,7.59,17.1,16.96,17.1h71.95
		c9.37,0,16.95-7.66,16.95-17.1V41.97C115.44,32.53,107.86,24.87,98.49,24.87"/>
	<path class="st1" d="M96.74,91.91c-4.23-1.43-9.92-3.62-16.25-5.93c3.8-6.67,6.84-14.26,8.84-22.51H68.46v-7.58h25.56v-4.23H68.46
		V39.03H58.02c-1.83,0-1.83,1.82-1.83,1.82v10.81H30.34v4.23h25.85v7.58H34.85v4.23h41.4c-1.51,5.26-3.55,10.21-5.96,14.7
		c-13.43-4.47-27.77-8.09-36.77-5.86c-5.76,1.43-9.47,3.98-11.65,6.66c-10,12.27-2.83,30.91,18.29,30.91
		c12.49,0,24.52-7.02,33.84-18.59c13.91,6.74,41.44,18.32,41.44,18.32v-16.5C115.44,97.33,111.98,97.06,96.74,91.91 M38.18,106.97
		c-16.47,0-21.34-13.08-13.2-20.24c2.72-2.42,7.68-3.6,10.32-3.86c9.78-0.97,18.84,2.79,29.53,8.05
		C57.32,100.8,47.76,106.97,38.18,106.97"/>
	<path class="st0" d="M239.45,40.5c0,5.52,4.04,9.24,9.67,9.24s9.67-3.72,9.67-9.24c0-5.42-4.04-9.24-9.67-9.24
		S239.45,35.08,239.45,40.5"/>
	<rect x="212.47" y="33.6" width="16.78" height="77.54"/>
	<path d="M183.04,36.25h-22.52l-25.17,74.89h15.51l4.25-14.66h26.66l4.04,14.66h19.86L183.04,36.25z M158.61,84.26l9.98-34.52h0.42
		l9.45,34.52H158.61z"/>
	<rect x="240.72" y="54.2" width="16.78" height="56.94"/>
	<polygon points="432.88,54.31 432.99,54.2 417.16,54.2 407.18,88.83 406.65,88.83 395.17,54.2 376.37,54.2 399,111.35 
		389.54,128.77 389.54,129.2 404.31,129.2 	"/>
	<path d="M299.25,53.03c-6.16,0-10.94,2.34-16.36,6.8V54.2h-16.78v74.99h16.78v-18.59c3.19,0.85,6.16,1.28,9.77,1.28
		c14.98,0,28.47-11.05,28.47-30.7C321.13,63.55,311.36,53.03,299.25,53.03 M288.63,101.37c-1.91,0-3.72-0.21-5.74-0.85v-30.8
		c3.51-2.44,6.37-3.61,9.98-3.61c6.27,0,11.26,4.99,11.26,15.62C304.14,95.31,296.81,101.37,288.63,101.37"/>
	<path d="M373.08,96.9V73.11c0-12.96-7.65-20.08-21.14-20.08c-8.61,0-14.55,1.49-25.39,4.78l2.97,13.07
		c9.88-4.46,14.23-6.37,18.8-6.37c5.52,0,7.97,3.93,7.97,9.99v0.42c-19.23,3.61-25.18,5.63-28.89,9.35
		c-2.76,2.76-3.93,6.69-3.93,11.26c0,10.94,8.5,16.78,16.46,16.78c5.95,0,10.73-2.23,17.21-7.12l1.17,5.95h16.78L373.08,96.9z
		 M356.3,97.33c-4.46,2.44-7.01,3.4-9.98,3.4c-4.04,0-6.59-2.66-6.59-6.9c0-1.59,0.32-3.19,1.59-4.46
		c2.02-2.02,5.95-3.51,14.98-5.63V97.33z"/>
</g>
</svg>
